<?xml version="1.0" encoding="utf-8"?>
<!-- Generator: Adobe Illustrator 23.0.3, SVG Export Plug-In . SVG Version: 6.00 Build 0)  -->
<svg version="1.1" id="Layer_1" xmlns="http://www.w3.org/2000/svg" xmlns:xlink="http://www.w3.org/1999/xlink" x="0px" y="0px"
	 viewBox="0 0 512 512" style="enable-background:new 0 0 512 512;" xml:space="preserve">
<style type="text/css">
	.st0{fill:#EC4038;}
	.st1{fill:url(#SOLID_COLOR_1_);}
	.st2{opacity:0.2;fill:#FFFFFF;}
	.st3{opacity:0.4;}
	.st4{fill:#FFFFFF;}
</style>
<path id="_x33_D" class="st0" d="M220.45,491.71c-1.61,0-3.15-0.78-4.5-1.47c-15.01-7.64-29.36-18.03-45.18-32.71
	c-2.57-2.38-5.16-4.75-7.75-7.13c-13.54-12.39-27.53-25.21-38.65-40.32c-19.85-27-34.38-57.7-43.17-91.22
	c-2.69-10.26-5.48-20.67-8.19-30.74c-9.2-34.28-18.7-69.73-25.83-105.16c-0.28-1.4-0.57-2.8-0.86-4.2c-2.42-11.8-4.93-24-3.78-36.38
	c3.32-35.54,18.12-59.06,45.25-71.91c20.76-9.82,42.88-15.09,65.6-20.05c22.5-4.91,45.54-9.02,67.81-12.99
	c10.6-1.89,21.56-3.84,32.32-5.86c23.81-4.46,48.76-6.62,76.27-6.62c7.32,0,14.95,0.16,22.68,0.47c20.51,0.83,38.76,3.77,55.81,8.97
	c25.34,7.74,41.83,24.51,50.39,51.29c6.24,19.49,10.07,41.41,11.73,67.01c1.64,25.45,1.81,50.52,1.54,80.33
	c-0.29,32.4-4.06,56.55-12.25,78.31c-7.79,20.73-21.63,34.31-42.32,41.53c-34.05,11.88-69,19.49-98.69,25.37
	c-26.05,5.16-53.79,10.58-81.25,15.23c-13.67,2.31-27.24,3.91-39.92,5.29c0.73,9.03,1.95,18.27,3.84,28.96
	c3.72,21.09,11.03,39.03,22.34,54.85c0.79,1.1,3.18,4.44,0.37,7.45C223.04,491.14,221.82,491.71,220.45,491.71z"/>
<linearGradient id="SOLID_COLOR_1_" gradientUnits="userSpaceOnUse" x1="39.9403" y1="252.517" x2="467.4155" y2="252.517">
	<stop  offset="0" style="stop-color:#F05A22"/>
	<stop  offset="1" style="stop-color:#F9A51A"/>
</linearGradient>
<path id="SOLID_COLOR" class="st1" d="M192.81,391.91c0.79,10.39,2.2,20.31,3.94,30.2c3.54,20.07,10.63,38.67,22.54,55.33
	c1.33,1.86,2.33,3.98,0.46,5.98c-2.14,2.29-4.45,1.15-6.77-0.02c-16.68-8.49-31.29-19.88-44.91-32.53
	c-16.17-15.02-33.11-29.42-46.25-47.29c-20.16-27.42-34.36-57.92-42.99-90.83c-11.84-45.15-24.79-90.04-34-135.84
	c-2.66-13.25-5.89-26.6-4.62-40.24c2.9-31.06,14.56-56.75,44.59-70.96c20.84-9.86,43.03-15.09,65.35-19.96
	c33.18-7.24,66.73-12.59,100.1-18.84c32.58-6.1,65.58-7.48,98.68-6.13c18.85,0.77,37.36,3.38,55.52,8.92
	c25.88,7.9,41.6,25.46,49.63,50.53c6.94,21.68,10.21,44.08,11.67,66.73c1.73,26.72,1.78,53.5,1.54,80.25
	c-0.23,26.5-2.72,52.77-12.17,77.91c-7.56,20.1-21.15,33.7-41.61,40.84c-32.15,11.22-65.21,18.73-98.53,25.33
	c-27.02,5.35-54.05,10.63-81.22,15.22C220.42,388.77,206.97,390.38,192.81,391.91z"/>
<path id="STR" class="st2" d="M465.77,146.95c-1.46-22.65-4.74-45.05-11.67-66.73c-8.02-25.08-23.75-42.63-49.63-50.53
	c-18.16-5.54-36.66-8.16-55.52-8.92c-33.1-1.35-66.1,0.03-98.68,6.13c-33.37,6.25-66.92,11.6-100.1,18.84
	c-22.33,4.87-44.51,10.1-65.35,19.96c-30.04,14.22-41.69,39.9-44.59,70.96c-1.27,13.64,1.95,27,4.62,40.24
	c9.21,45.8,22.16,90.69,34,135.84c8.63,32.9,22.83,63.41,42.99,90.83c13.13,17.86,30.07,32.27,46.25,47.29
	c13.63,12.65,28.23,24.04,44.91,32.53c2.32,1.18,4.63,2.32,6.77,0.02c1.87-2,0.87-4.12-0.46-5.98c-11.91-16.65-19-35.26-22.54-55.33
	c-1.74-9.89-3.15-19.81-3.94-30.2c14.16-1.53,27.61-3.14,40.97-5.4c27.16-4.6,54.19-9.87,81.22-15.22
	c33.32-6.6,66.38-14.11,98.53-25.33c20.46-7.14,34.05-20.74,41.61-40.84c9.45-25.14,11.94-51.41,12.17-77.91
	C467.55,200.45,467.5,173.67,465.77,146.95z M461.51,227.15c-0.28,31.54-3.92,54.96-11.8,75.92c-7.02,18.68-19.48,30.91-38.09,37.4
	c-33.64,11.74-68.29,19.28-97.75,25.12c-26.01,5.15-53.69,10.56-81.06,15.19c-13.89,2.35-27.74,3.96-40.63,5.36l-5.59,0.6l0.43,5.61
	c0.73,9.63,2.01,19.4,4.01,30.76c3.53,19.98,10.14,37.31,20.17,52.76c-12.86-7.1-25.43-16.5-39.18-29.27
	c-2.58-2.4-5.18-4.78-7.78-7.16c-13.29-12.17-27.03-24.75-37.74-39.31c-19.33-26.29-33.48-56.19-42.05-88.86
	c-2.7-10.28-5.49-20.7-8.2-30.78c-9.17-34.18-18.65-69.52-25.73-104.73c-0.28-1.41-0.57-2.82-0.86-4.23
	c-2.43-11.82-4.72-22.99-3.66-34.33c3.11-33.34,16.23-54.4,41.3-66.26c20.09-9.51,41.79-14.67,64.11-19.54
	c22.37-4.88,45.34-8.97,67.55-12.93c10.62-1.89,21.59-3.85,32.38-5.87c23.38-4.38,47.91-6.51,74.99-6.51
	c7.23,0,14.76,0.16,22.39,0.47c19.9,0.81,37.59,3.65,54.06,8.68c22.99,7.02,37.97,22.31,45.79,46.75
	c6.06,18.94,9.79,40.31,11.41,65.33C461.61,172.57,461.77,197.49,461.51,227.15z"/>
<g id="REFLEX" class="st3">
	<path class="st4" d="M219.29,477.43"/>
	<path class="st4" d="M465.77,146.95c-1.46-22.65-4.74-45.05-11.67-66.73c-8.02-25.08-23.75-42.63-49.63-50.53
		c-18.16-5.54-36.66-8.16-55.52-8.92c-33.1-1.35-66.1,0.03-98.68,6.13c-33.37,6.25-66.92,11.6-100.1,18.84
		c-22.33,4.87-44.51,10.1-65.35,19.96c-11.5,5.44-20.3,12.57-26.95,21.03c4.48-3.53,9.57-6.69,15.34-9.42
		c20.84-9.86,43.03-15.09,65.35-19.96c33.18-7.24,66.73-12.59,100.1-18.84c32.58-6.1,65.58-7.48,98.68-6.13
		c18.85,0.77,37.36,3.38,55.52,8.92c25.88,7.9,41.6,25.46,49.63,50.53c6.94,21.68,10.21,44.08,11.67,66.73
		c1.73,26.72,1.78,53.5,1.54,80.25c-0.23,26.51-2.72,52.77-12.17,77.91c-2.66,7.08-6.09,13.33-10.28,18.8
		c9.86-7.53,17.09-17.65,21.89-30.41c9.45-25.14,11.94-51.41,12.17-77.91C467.55,200.45,467.5,173.67,465.77,146.95z"/>
</g>
<g id="Chefia">
	<g>
		<path class="st4" d="M156.22,199.41c2.98-0.86,5.82-1.2,8.5-1.02c2.68,0.19,5.07,0.66,7.16,1.42c2.09,0.76,3.87,1.76,5.34,3
			c1.47,1.24,2.52,2.43,3.15,3.56c1.11,2.1,1.74,3.82,1.87,5.15c0.13,1.33,0.11,2.55-0.08,3.66c-0.19,1.11-0.3,2.29-0.35,3.51
			c-0.05,1.23,0.29,2.75,1.02,4.56c-0.48,0.44-1.11,0.88-1.9,1.31c-0.69,0.41-1.51,0.74-2.44,1.01c-0.93,0.27-1.98,0.32-3.14,0.15
			c-2.76-0.11-4.92-0.85-6.48-2.22c-1.56-1.37-2.47-3.03-2.73-4.97c-0.07-1.29,0.02-2.46,0.28-3.49c0.26-1.03,0.56-2.01,0.9-2.92
			c-3.92,1.13-7.94,3.66-12.06,7.59c-4.12,3.92-8,8.69-11.64,14.29c-3.64,5.6-6.93,11.77-9.89,18.48
			c-2.96,6.72-5.22,13.42-6.77,20.08c-1.56,6.67-2.28,13.07-2.18,19.21c0.11,6.14,1.35,11.39,3.73,15.76c0.34,0.81,0.9,1.81,1.7,3
			c0.8,1.19,1.85,2.27,3.14,3.26c1.3,0.99,2.89,1.69,4.78,2.1c1.89,0.42,4.14,0.24,6.75-0.51c7.46-2.16,13.62-5.51,18.48-10.05
			c4.85-4.54,8.82-9.45,11.89-14.74c3.07-5.29,5.44-10.55,7.11-15.78c1.67-5.23,3.04-9.68,4.11-13.32c0.28-0.79,0.89-1.12,1.84-0.99
			c1.19,0.26,1.84,0.94,1.95,2.01c-0.14,1.26-0.45,3.52-0.92,6.79c-0.47,3.27-1.27,7.07-2.39,11.38c-1.13,4.32-2.68,8.89-4.68,13.71
			c-1.99,4.82-4.49,9.47-7.5,13.92c-3.01,4.46-6.68,8.45-11.02,11.98c-4.34,3.53-9.44,6.15-15.32,7.85
			c-3.36,0.97-6.73,1.39-10.1,1.25c-3.38-0.14-6.62-0.87-9.73-2.19c-3.11-1.32-6.06-3.28-8.82-5.86c-2.77-2.58-5.18-5.86-7.24-9.81
			c-2.71-5.18-4.24-11.33-4.59-18.46c-0.34-7.13,0.28-14.59,1.86-22.38c1.59-7.79,3.94-15.62,7.07-23.51
			c3.13-7.88,6.78-15.1,10.94-21.67c4.17-6.56,8.68-12.19,13.54-16.88C146.23,203.94,151.18,200.87,156.22,199.41z"/>
		<path class="st4" d="M238.95,248.41c0.52,0.05,0.94,0.29,1.26,0.7c0.32,0.41,0.46,0.88,0.41,1.4c-0.18,1.47-0.42,3.46-0.7,5.97
			c-0.29,2.51-0.69,5.2-1.22,8.09c-0.53,2.88-1.19,5.86-1.97,8.91c-0.78,3.06-1.69,5.87-2.71,8.44c-1.03,2.57-2.23,4.79-3.61,6.66
			c-1.38,1.87-2.96,3.06-4.73,3.57c-2.33,0.67-4.44,0.38-6.33-0.9c-1.88-1.27-3.38-2.96-4.5-5.07c-1.12-2.1-1.89-4.78-2.33-8.05
			c-0.44-3.26-0.56-6.71-0.35-10.36c0.21-3.65,0.66-7.32,1.36-11.01s1.63-7.02,2.8-9.99c-2.16,0.93-3.99,3-5.48,6.21
			c-1.5,3.22-2.71,6.8-3.63,10.76c-0.93,3.96-1.55,7.93-1.86,11.91c-0.31,3.98-0.29,7.29,0.06,9.92c0.59,0.64,1.17,1.18,1.76,1.61
			c0.58,0.44,1.16,0.78,1.73,1.02c0.57,0.24,1.13,0.43,1.68,0.57c-0.53,1.67-1.16,3.17-1.89,4.49c-0.66,1.2-1.48,2.32-2.44,3.36
			c-0.97,1.04-2.1,1.74-3.41,2.12c-2.61,0.76-5.22,0.22-7.82-1.6c-2.6-1.83-4.63-4.2-6.08-7.11c-1.72-3.14-2.79-6.93-3.21-11.35
			c-0.42-4.43-0.36-9.2,0.18-14.31c0.54-5.11,1.43-10.42,2.67-15.94c1.23-5.51,2.69-10.89,4.36-16.12
			c1.67-5.23,3.48-10.26,5.42-15.07c1.94-4.81,3.83-9.04,5.65-12.71c1.82-3.66,3.49-6.62,5.01-8.88c1.52-2.26,2.75-3.52,3.68-3.79
			c1.68-0.49,3.3-0.4,4.85,0.26c1.56,0.66,2.94,1.52,4.16,2.59c1.46,1.2,2.83,2.62,4.12,4.27c-1.77,0.51-3.94,2.71-6.51,6.59
			c-2.57,3.88-5.12,8.69-7.65,14.42c-2.54,5.74-4.83,12.06-6.87,18.97c-2.04,6.91-3.38,13.64-4.01,20.2
			c0.43-1.64,1.12-3.89,2.07-6.74c0.94-2.85,2.08-5.73,3.41-8.65c1.33-2.91,2.85-5.53,4.55-7.84c1.7-2.31,3.54-3.75,5.5-4.32
			c1.31-0.38,2.69-0.4,4.15-0.07c1.46,0.34,2.89,0.91,4.29,1.72c1.39,0.81,2.69,1.78,3.87,2.9c1.18,1.12,2.11,2.3,2.76,3.52
			c-1.33,2.41-2.48,5.07-3.45,7.98c-0.9,2.49-1.67,5.31-2.32,8.48c-0.65,3.17-0.92,6.51-0.82,10.02c-0.03,0.61,0.01,1.34,0.1,2.17
			c0.09,0.83,0.23,1.6,0.44,2.3c0.2,0.7,0.47,1.28,0.81,1.74c0.33,0.46,0.78,0.61,1.34,0.45c0.65-0.19,1.45-1.28,2.39-3.27
			c0.94-1.99,1.87-4.28,2.79-6.87c0.92-2.59,1.77-5.14,2.56-7.64c0.79-2.5,1.37-4.36,1.72-5.58c0.08-0.43,0.3-0.72,0.66-0.87
			C237.99,248.41,238.43,248.36,238.95,248.41z"/>
		<path class="st4" d="M277.21,237.03c0.64,0.12,1.11,0.41,1.39,0.88c0.29,0.47,0.43,0.86,0.41,1.17c-0.18,1.47-0.51,3.41-0.97,5.82
			c-0.47,2.41-1.07,5.04-1.81,7.88c-0.75,2.85-1.72,5.78-2.91,8.81c-1.2,3.03-2.62,5.87-4.28,8.52c-1.66,2.66-3.61,4.99-5.86,7
			c-2.25,2.02-4.82,3.44-7.71,4.28c-4.11,1.19-7.47,0.85-10.08-1.03c-2.61-1.87-4.72-4.34-6.32-7.42c-1.34-2.54-2.29-5.56-2.84-9.04
			c-0.55-3.48-0.71-7.15-0.46-11.01c0.25-3.86,0.85-7.7,1.82-11.52c0.97-3.82,2.27-7.35,3.91-10.61c1.64-3.25,3.61-6.05,5.91-8.39
			c2.3-2.33,4.86-3.91,7.66-4.72c1.68-0.49,3.29-0.6,4.83-0.34c1.54,0.26,2.93,0.77,4.16,1.53c1.23,0.76,2.3,1.66,3.21,2.71
			c0.91,1.05,1.68,2.14,2.31,3.27c1.26,2.26,1.54,5.04,0.82,8.33c-0.72,3.29-2.1,6.55-4.15,9.77c-2.05,3.22-4.62,6.22-7.71,8.98
			c-3.09,2.77-6.48,4.78-10.16,6.05c-0.01,1.02,0.11,2.47,0.36,4.37c0.25,1.9,0.61,3.34,1.1,4.31c1.1,2.41,2.86,3.27,5.29,2.56
			c3.08-0.89,5.64-2.42,7.7-4.58c2.05-2.16,3.81-4.67,5.26-7.51c1.45-2.85,2.66-5.93,3.62-9.24c0.96-3.31,1.89-6.56,2.79-9.75
			c0.1-0.33,0.45-0.61,1.05-0.83C276.13,237.07,276.69,236.98,277.21,237.03z M259.95,227.17c-1.12,0.32-2.36,1.21-3.7,2.66
			c-1.35,1.45-2.61,3.23-3.76,5.34c-1.16,2.11-2.17,4.39-3.02,6.86c-0.85,2.47-1.34,4.89-1.47,7.25c1.57-0.86,3.28-2.54,5.14-5.05
			s3.46-5.07,4.83-7.69c1.37-2.62,2.29-4.91,2.79-6.87C261.24,227.7,260.97,226.87,259.95,227.17z"/>
		<path class="st4" d="M303.89,191.4c-1.17,0.85-2.55,2.91-4.12,6.2c-1.58,3.29-3.15,7.46-4.72,12.51
			c-1.57,5.06-2.96,10.74-4.16,17.05c-1.21,6.32-2.05,12.83-2.53,19.54c0,1.42,0.27,2.68,0.79,3.79c0.52,1.11,1.17,1.96,1.95,2.54
			c0.78,0.59,1.68,0.83,2.72,0.73c1.03-0.1,2.11-0.66,3.23-1.69c1.66-1.59,3.07-3.47,4.21-5.62c1.14-2.15,2.09-4.3,2.84-6.43
			c0.75-2.14,1.37-4.19,1.86-6.15c0.49-1.96,0.92-3.55,1.27-4.77c0.06-0.83,0.68-1.16,1.84-0.99c0.52,0.05,0.96,0.28,1.33,0.68
			c0.37,0.4,0.53,0.86,0.48,1.38c-0.1,1.75-0.32,3.86-0.67,6.34c-0.35,2.48-0.91,5.07-1.69,7.77c-0.79,2.71-1.79,5.42-3.02,8.16
			c-1.23,2.73-2.8,5.18-4.7,7.35c1.38,1.62,2.43,3.77,3.15,6.44c0.72,2.67,1.2,5.54,1.43,8.61c0.23,3.07,0.21,6.23-0.06,9.5
			c-0.27,3.26-0.68,6.39-1.23,9.38c-0.55,2.99-1.26,5.69-2.12,8.12c-0.87,2.42-1.77,4.28-2.71,5.56c-0.52,0.66-1.08,1.25-1.68,1.78
			c-0.61,0.53-1.38,0.93-2.31,1.2c-1.31,0.38-2.63,0.36-3.96-0.07c-1.34-0.42-2.68-1.12-4.02-2.1c-1.34-0.98-2.6-2.16-3.75-3.54
			c-1.16-1.39-2.17-2.86-3.03-4.43c-2.4-4.46-4.2-9.45-5.39-14.97c-1.19-5.52-1.9-11.28-2.12-17.28c-0.22-6-0.08-12.06,0.43-18.17
			c0.51-6.11,1.26-12.07,2.26-17.87c1-5.8,2.14-11.29,3.43-16.46c1.28-5.17,2.59-9.75,3.91-13.72c1.33-3.97,2.56-7.21,3.71-9.72
			c1.14-2.51,2.1-4.02,2.86-4.54c1.36-0.9,2.89-1.19,4.6-0.88c1.71,0.32,3.27,0.82,4.69,1.52
			C300.51,188.99,302.19,190.07,303.89,191.4z M296.1,291.32c0.56-0.16,1.15-1.17,1.78-3.02c0.63-1.85,1.08-4.05,1.35-6.61
			c0.27-2.56,0.28-5.24,0.02-8.04c-0.26-2.81-0.94-5.26-2.06-7.37c-0.63-1.13-1.23-1.82-1.81-2.05c-0.58-0.24-1.2-0.23-1.89,0.02
			c-0.69,0.25-1.42,0.59-2.21,1.02c-0.78,0.43-1.67,0.69-2.66,0.77c0.15,0.87,0.3,2.01,0.46,3.43c0.16,1.42,0.38,2.98,0.67,4.66
			c0.28,1.69,0.57,3.37,0.86,5.06c0.29,1.69,0.63,3.23,1.04,4.63c0.08,0.28,0.24,0.84,0.49,1.68c0.24,0.84,0.58,1.73,1,2.67
			c0.42,0.94,0.9,1.73,1.45,2.39C295.13,291.19,295.64,291.45,296.1,291.32z"/>
		<path class="st4" d="M315.38,201.26c1.4-0.4,2.64-0.41,3.71-0.01c1.08,0.4,1.95,0.9,2.64,1.51c0.83,0.77,1.58,1.62,2.25,2.53
			c-1.15,3.37-2.09,6.92-2.82,10.68c-0.68,3.23-1.25,6.88-1.68,10.95c-0.44,4.07-0.59,8.26-0.46,12.57
			c-0.03,0.61,0.02,1.31,0.15,2.08c0.12,0.78,0.28,1.49,0.47,2.14c0.19,0.65,0.46,1.16,0.82,1.51c0.35,0.35,0.76,0.46,1.23,0.33
			c0.65-0.19,1.45-1.28,2.39-3.27c0.94-1.99,1.87-4.28,2.79-6.87c0.92-2.59,1.77-5.14,2.56-7.64c0.79-2.5,1.37-4.36,1.72-5.58
			c0.25-0.88,0.91-1.22,1.98-1.03c0.52,0.05,0.94,0.29,1.26,0.7c0.32,0.41,0.45,0.88,0.4,1.4c-0.19,1.78-0.42,3.96-0.68,6.57
			c-0.26,2.6-0.65,5.35-1.18,8.23c-0.53,2.88-1.17,5.83-1.92,8.82c-0.75,3-1.65,5.74-2.7,8.21c-1.05,2.48-2.3,4.61-3.76,6.4
			c-1.45,1.79-3.12,2.95-4.98,3.49c-2.24,0.65-4.28,0.33-6.12-0.96c-1.84-1.29-3.31-2.98-4.43-5.09c-1.12-2.1-1.95-4.92-2.52-8.44
			c-0.57-3.53-0.89-7.35-0.97-11.47c-0.08-4.12,0.12-8.32,0.6-12.61c0.48-4.28,1.13-8.21,1.97-11.79c0.83-3.58,1.86-6.58,3.08-9.01
			C312.39,203.17,313.8,201.72,315.38,201.26z M315.9,188.38c1.08-0.82,2.14-1.17,3.18-1.07c1.04,0.1,2.03,0.38,2.96,0.81
			c1.06,0.51,2.01,1.19,2.87,2.05l-0.02,0.46c-0.19,1.78-0.5,3.25-0.92,4.44c-0.42,1.18-1,2.03-1.76,2.56
			c-1.17,0.85-2.28,1.22-3.32,1.11c-1.04-0.1-1.98-0.39-2.82-0.85c-0.96-0.53-1.87-1.23-2.73-2.09l-0.12-0.42
			c0.19-1.77,0.5-3.25,0.91-4.44C314.55,189.75,315.14,188.9,315.9,188.38z"/>
		<path class="st4" d="M382.66,206.82c0.52,0.05,0.94,0.28,1.26,0.7c0.32,0.41,0.46,0.88,0.4,1.4c-0.15,1.56-0.47,3.98-0.94,7.25
			c-0.47,3.27-1.15,6.78-2.03,10.52c-0.89,3.75-1.97,7.45-3.23,11.1c-1.27,3.65-2.73,6.63-4.39,8.93c-0.59,0.78-1.27,1.56-2.05,2.34
			c-0.78,0.78-1.65,1.31-2.58,1.58c-3.17,0.92-5.85-0.63-8.02-4.65c-1.23-2.17-2.22-4.87-2.95-8.09c-0.46,2.26-1.04,4.52-1.75,6.8
			c-0.71,2.28-1.52,4.36-2.44,6.24c-0.92,1.88-1.99,3.51-3.21,4.87c-1.22,1.36-2.58,2.26-4.07,2.69c-3.92,1.13-7.12,0.39-9.59-2.23
			c-2.48-2.62-4.24-6.25-5.28-10.91c-1.04-4.65-1.44-9.95-1.18-15.88c0.25-5.94,1.21-11.62,2.87-17.06
			c1.66-5.43,3.98-10.25,6.96-14.45c2.98-4.2,6.62-6.92,10.91-8.16c1.68-0.49,3.31-0.6,4.9-0.36c1.59,0.25,3.04,0.74,4.37,1.47
			c1.32,0.73,2.49,1.61,3.49,2.63c1,1.03,1.82,2.1,2.45,3.23c1.09,2.01,1.73,3.87,1.92,5.59c0.19,1.71,0.22,3.2,0.07,4.45
			c1.2,0.66,2.17,1.39,2.91,2.19c0.42,0.39,0.74,0.8,0.97,1.24c-0.57,1.18-1.17,2.41-1.81,3.71c-0.45,1.24-0.9,2.64-1.37,4.19
			c-0.46,1.55-0.72,3.29-0.76,5.23c-0.04,0.22-0.05,0.77-0.04,1.68c0.01,0.91,0.1,1.84,0.28,2.8c0.18,0.96,0.45,1.82,0.82,2.57
			c0.37,0.75,0.93,1.02,1.67,0.8c0.65-0.19,1.45-1.28,2.39-3.27c0.94-1.99,1.87-4.28,2.79-6.87c0.92-2.59,1.77-5.14,2.56-7.64
			c0.79-2.5,1.37-4.36,1.72-5.58c0.08-0.43,0.3-0.72,0.66-0.87C381.7,206.82,382.14,206.77,382.66,206.82z M345.57,239.54
			c1.12-0.32,2.17-1.33,3.14-3.03c0.97-1.7,1.87-3.75,2.69-6.16c0.82-2.41,1.61-4.99,2.38-7.74c0.77-2.75,1.54-5.32,2.31-7.72
			c0.77-2.4,1.55-4.42,2.34-6.06c0.79-1.64,1.6-2.59,2.44-2.83c0.18-0.05,0.4-0.09,0.65-0.11c0.25-0.02,0.46-0.06,0.65-0.11
			c0.35-1.21,0.38-2.33,0.09-3.36c-0.3-1.03-1.38-1.27-3.24-0.73c-1.96,0.57-4.02,2.45-6.17,5.65c-2.16,3.2-4.04,6.83-5.65,10.88
			c-1.61,4.06-2.75,8.05-3.43,11.99c-0.68,3.94-0.48,6.91,0.61,8.92C344.61,239.57,345.01,239.7,345.57,239.54z"/>
	</g>
	<g>
		<path class="st4" d="M394.15,239.31c1.02-1,2.14-1.53,3.34-1.57c1.2-0.04,2.36,0.13,3.48,0.51c1.24,0.45,2.5,1.15,3.79,2.09
			c-0.16,0.86-0.27,1.77-0.34,2.75c-0.07,0.98-0.14,1.96-0.21,2.94c-0.07,0.98-0.2,1.85-0.38,2.61c-0.18,0.76-0.47,1.35-0.86,1.76
			c-1.09,1.13-2.21,1.73-3.35,1.8c-1.14,0.08-2.18-0.1-3.11-0.54c-1.15-0.47-2.26-1.16-3.33-2.07c0.04-0.92,0.04-1.88,0-2.88
			c-0.04-1-0.05-2.01-0.04-3.02c0.01-1.01,0.08-1.89,0.22-2.64C393.5,240.31,393.76,239.72,394.15,239.31z M403.82,234.99
			c-2.52,0.02-4.89-0.4-7.12-1.28c-2.22-0.87-3.65-2.73-4.27-5.59c-0.65-3.65-0.68-8.45-0.07-14.39c0.61-5.94,1.69-12.32,3.26-19.14
			c1.56-6.82,3.45-13.76,5.65-20.82c2.2-7.06,4.55-13.53,7.05-19.4c2.49-5.88,5.02-10.78,7.57-14.7c2.55-3.92,4.9-6.2,7.05-6.82
			c1.58-0.46,3.18-0.36,4.78,0.28c1.6,0.65,3.05,1.44,4.33,2.39c1.43,1.1,2.82,2.42,4.18,3.95c-1.53,2.06-3.42,4.86-5.68,8.39
			c-2.26,3.54-4.62,7.63-7.06,12.28c-2.45,4.65-4.87,9.83-7.26,15.52c-2.4,5.7-4.52,11.72-6.37,18.07c-1.85,6.35-3.34,13-4.46,19.95
			C404.26,220.64,403.74,227.74,403.82,234.99z"/>
	</g>
</g>
<g id="Ô">
	<g>
		<path class="st4" d="M279.03,61.81c0.71,0,1.25,0.12,1.64,0.35c0.38,0.23,0.83,0.62,1.35,1.17l8.06,9.41
			c0.37,0.43,0.01,0.88-1.07,1.34c-1.08,0.47-2.34,0.74-3.77,0.81l-7.11-8.59l-12.53,8.46c-1.57-0.31-2.64-0.68-3.22-1.11
			c-0.57-0.43-0.57-0.86,0-1.28l13.03-9.04c0.78-0.54,1.44-0.93,2-1.17C277.96,61.92,278.5,61.81,279.03,61.81z"/>
		<g>
			<path class="st4" d="M278.94,62.6c1.61,0.07,2.44,1.21,3.39,2.32c1.1,1.28,2.2,2.57,3.3,3.85c1.03,1.2,2.06,2.4,3.09,3.61
				c0.13,0.16,0.68,0.6,0.69,0.81c-0.02-0.33-0.83,0.21-1.21,0.35c-0.99,0.37-2.05,0.49-3.09,0.57c0.25,0.09,0.49,0.19,0.74,0.28
				c-2.37-2.86-4.74-5.73-7.11-8.59c-0.29-0.35-0.76-0.36-1.12-0.11c-3.94,2.66-7.87,5.31-11.81,7.97
				c-0.14,0.09-0.49,0.43-0.66,0.45c0.13-0.01-0.38-0.32-0.43-0.35c-0.22-0.13-1.83-0.35-1.84-0.77c-0.01-0.17,1.31-0.91,1.44-1
				c2.42-1.68,4.83-3.35,7.25-5.03c2.08-1.44,5-4.17,7.59-4.36c1.02-0.07,0.77-1.65-0.24-1.57c-2.71,0.2-5.32,2.6-7.5,4.11
				c-2.75,1.91-5.51,3.82-8.26,5.73c-0.58,0.4-1.51,0.86-1.84,1.53c-0.93,1.93,2.85,3.25,4.19,3.16c0.69-0.05,1.36-0.69,1.92-1.06
				c1.3-0.88,2.6-1.76,3.91-2.63c2.44-1.64,4.87-3.29,7.31-4.93c-0.37-0.04-0.75-0.08-1.12-0.11c1.35,1.63,2.7,3.27,4.05,4.9
				c0.8,0.96,1.59,1.92,2.39,2.89c0.55,0.67,0.77,1.09,1.7,1.06c1.43-0.03,4.74-0.54,5.29-2.19c0.24-0.73-0.27-1.26-0.7-1.76
				c-1.69-1.98-3.38-3.95-5.08-5.93c-1.64-1.91-3.29-4.63-6.04-4.76C278.1,60.97,277.91,62.55,278.94,62.6z"/>
		</g>
	</g>
	<g>
		<path class="st4" d="M287.13,87.75c1.48,3.05,2.21,7.18,2.17,12.39c-0.04,5.21-0.71,10.87-2.03,16.99
			c-1.32,6.12-3.15,12.39-5.5,18.81c-2.35,6.42-5.11,12.35-8.25,17.79c-3.15,5.44-6.6,10.07-10.35,13.89
			c-3.75,3.82-7.64,6.22-11.66,7.2c-1.94,0.44-4.06,0.54-6.34,0.3c-2.29-0.25-4.51-0.78-6.67-1.62c-2.16-0.83-4.1-1.92-5.81-3.26
			c-1.72-1.34-3.01-2.84-3.88-4.51c-1.68-3.41-2.68-7.66-3.02-12.76c-0.33-5.09-0.09-10.5,0.74-16.21c0.82-5.72,2.16-11.49,4-17.32
			c1.84-5.83,4.12-11.19,6.84-16.08c2.71-4.89,5.77-9.08,9.18-12.55c3.41-3.48,7.08-5.74,11.02-6.79c2.22-0.7,4.05-0.71,5.51-0.03
			l2.46-1.65c2.73-1.6,5.25-2.53,7.56-2.79c2.31-0.25,4.36-0.06,6.15,0.58c1.79,0.65,3.34,1.66,4.64,3.05
			C285.17,84.56,286.26,86.09,287.13,87.75z M242.22,166.65c3.12-0.88,6.41-2.98,9.87-6.31c3.46-3.33,6.82-7.37,10.08-12.14
			c3.26-4.76,6.25-9.97,8.95-15.63c2.71-5.66,4.88-11.25,6.53-16.79c1.65-5.54,2.62-10.76,2.92-15.65c0.3-4.89-0.34-8.94-1.91-12.13
			c-0.68-1.3-1.33-2.21-1.96-2.71s-1.46-0.58-2.5-0.24c-1.19,0.36-2.59,1.36-4.21,2.99c-1.62,1.63-3.33,3.68-5.12,6.13
			c-1.8,2.46-3.63,5.22-5.51,8.3c-1.88,3.08-3.61,6.27-5.2,9.59c-1.59,3.31-3,6.63-4.24,9.94c-1.24,3.31-2.16,6.46-2.75,9.43
			c-0.24,1.33-0.83,1.68-1.78,1.06c-0.95-0.62-1.82-2.11-2.62-4.48c-0.86,2.62-1.69,5.3-2.5,8.03c-0.81,2.73-1.45,5.56-1.93,8.48
			c-0.48,2.92-0.72,5.95-0.72,9.09c0,3.14,0.38,6.43,1.15,9.86c0.28,1.19,0.71,2.09,1.27,2.67
			C240.61,166.73,241.33,166.9,242.22,166.65z"/>
	</g>
</g>
<g id="TALK">
	<path class="st4" d="M330.69,107.83c-0.31,0.65-1.01,0.96-1.79,1.15c-5.11,1.2-10.28,1.96-15.5,2.39
		c-1.35,0.11-2.69-0.19-2.98-1.75c-0.28-1.55,0.83-2.35,2.15-2.69c5.22-1.33,10.52-2.24,15.91-2.38
		C330.66,104.5,331.68,106.08,330.69,107.83z"/>
	<path class="st4" d="M334.18,129.72c0.82,0.52,1.44,1.13,1.32,2.22c-0.11,1-0.76,1.49-1.65,1.69c-0.54,0.12-1.13,0.16-1.67,0.1
		c-5.02-0.61-10.04-1.21-15.05-1.9c-2.69-0.37-3.91-1.45-3.64-2.95c0.28-1.53,1.68-2.05,4.44-1.61c4.92,0.78,9.8,1.88,14.8,2.13
		C333.22,129.42,333.7,129.61,334.18,129.72z"/>
	<path class="st4" d="M322.91,85.84c-0.54,0.36-1.14,0.86-1.82,1.21c-4.46,2.3-8.93,4.58-13.42,6.84c-1.18,0.6-2.49,1.08-3.34-0.42
		c-0.86-1.51,0-2.54,1.3-3.29c4.66-2.71,9.67-4.66,14.61-6.77c0.96-0.41,1.93-0.43,2.69,0.5C323.39,84.48,323.18,85.08,322.91,85.84
		z"/>
	<path class="st4" d="M216.9,88.13c-4.92-3.74-9.69-7.44-14.06-11.63c-0.98-0.94-1.58-2.16-0.39-3.33c1.1-1.09,2.23-0.46,3.2,0.35
		c4.2,3.51,8.38,7.05,12.56,10.58c0.37,0.32,0.72,0.67,1.05,1.04c0.79,0.88,1.12,1.86,0.23,2.83
		C218.66,88.87,217.7,88.48,216.9,88.13z"/>
	<path class="st4" d="M196.85,99.04c-1.22-0.66-1.91-1.03-2.59-1.4c-1.11-0.62-1.79-1.47-1.14-2.76c0.59-1.17,1.6-1.27,2.71-0.77
		c3.16,1.4,6.31,2.81,9.46,4.24c1.74,0.78,3.49,1.54,5.18,2.42c1.18,0.62,2.56,1.41,1.85,3.07c-0.74,1.71-2.32,1.15-3.5,0.64
		C204.61,102.65,200.47,100.69,196.85,99.04z"/>
	<path class="st4" d="M204.62,116.85c0.8,0.41,1.17,1,1.09,1.77c-0.08,0.72-0.42,1.38-1.17,1.62c-0.6,0.19-1.23,0.32-1.85,0.37
		c-4.28,0.32-8.53,1.01-12.84,0.91c-1.32-0.03-2.7-0.13-2.87-1.81c-0.16-1.67,1.16-2.11,2.46-2.34c4.45-0.79,8.95-0.99,13.46-0.85
		C203.5,116.53,204.18,116.45,204.62,116.85z"/>
</g>
</svg>
